<?xml version="1.0" encoding="UTF-8" standalone="no"?>
<!-- Created with Inkscape (http://www.inkscape.org/) -->

<svg
   xmlns:dc="http://purl.org/dc/elements/1.1/"
   xmlns:cc="http://creativecommons.org/ns#"
   xmlns:rdf="http://www.w3.org/1999/02/22-rdf-syntax-ns#"
   xmlns:svg="http://www.w3.org/2000/svg"
   xmlns="http://www.w3.org/2000/svg"
   xmlns:sodipodi="http://sodipodi.sourceforge.net/DTD/sodipodi-0.dtd"
   xmlns:inkscape="http://www.inkscape.org/namespaces/inkscape"
   width="191.15199mm"
   height="153.07201mm"
   viewBox="0 0 191.15199 153.07201"
   version="1.1"
   id="svg6909"
   sodipodi:docname="Sub-Saharan Africa.svg"
   inkscape:version="0.92.4 (5da689c313, 2019-01-14)">
  <defs
     id="defs6903">
    <clipPath
       clipPathUnits="userSpaceOnUse"
       id="clipPath6888">
      <rect
         style="fill:#000000;fill-opacity:0;stroke:#00000a;stroke-width:0.5;stroke-miterlimit:4;stroke-dasharray:none;stroke-opacity:1"
         id="rect6890"
         width="247.95238"
         height="207.13094"
         x="-23.004908"
         y="55.376316" />
    </clipPath>
  </defs>
  <sodipodi:namedview
     id="base"
     pagecolor="#ffffff"
     bordercolor="#666666"
     borderopacity="1.0"
     inkscape:pageopacity="0.0"
     inkscape:pageshadow="2"
     inkscape:zoom="0.49497475"
     inkscape:cx="1058.4464"
     inkscape:cy="62.185443"
     inkscape:document-units="mm"
     inkscape:current-layer="layer1"
     showgrid="false"
     inkscape:window-width="1920"
     inkscape:window-height="1017"
     inkscape:window-x="-8"
     inkscape:window-y="-8"
     inkscape:window-maximized="1" />
  <metadata
     id="metadata6906">
    <rdf:RDF>
      <cc:Work
         rdf:about="">
        <dc:format>image/svg+xml</dc:format>
        <dc:type
           rdf:resource="http://purl.org/dc/dcmitype/StillImage" />
        <dc:title></dc:title>
      </cc:Work>
    </rdf:RDF>
  </metadata>
  <g
     inkscape:label="Ebene 1"
     inkscape:groupmode="layer"
     id="layer1"
     transform="translate(0,-143.92801)">
    <path
       transform="translate(-7.9257089,55.29068)"
       style="fill:#797979;fill-opacity:1"
       inkscape:connector-curvature="0"
       id="Auswahl"
       d="m 166.78333,92.930569 c 0,0 5.53855,8.400221 5.53855,8.400221 0.55255,0.83069 2.73101,4.35506 3.26863,4.74147 0.64401,0.46294 1.83125,0.28934 2.5798,0.1904 0,0 1.86672,-0.0952 1.86672,-0.0952 0,0 1.49337,-0.1624 1.49337,-0.1624 0,0 10.08027,-0.73736 10.08027,-0.73736 0,0 7.46687,-0.57681 7.46687,-0.57681 -0.19227,1.23016 -0.84189,2.4006 -1.3347,3.54676 0,0 -2.77208,6.34684 -2.77208,6.34684 0,0 -3.65503,8.40023 -3.65503,8.40023 0,0 -2.26246,5.04013 -2.26246,5.04013 0,0 -3.02595,3.36009 -3.02595,3.36009 0,0 -4.48012,4.85347 -4.48012,4.85347 0,0 -14.23558,15.49375 -14.23558,15.49375 0,0 -6.88259,7.46687 -6.88259,7.46687 0,0 -4.13105,4.58839 -4.13105,4.58839 -0.29307,0.56561 0.13628,1.70804 0.28748,2.31846 0,0 1.3067,5.41348 1.3067,5.41348 0,0 3.54676,14.74707 3.54676,14.74707 0,0 1.07523,4.48012 1.07523,4.48012 0.13627,0.55068 0.53015,1.93392 0.49282,2.42673 -0.0635,0.82509 -1.49338,2.45287 -2.03473,3.17342 0,0 -5.55161,7.28019 -5.55161,7.28019 0,0 -9.83013,12.88035 -9.83013,12.88035 0,0 -10.75603,14.74707 -10.75603,14.74707 0,0 -5.59455,7.65354 -5.59455,7.65354 -0.47975,0.65148 -1.56804,2.40806 -2.24939,2.68807 -0.32668,0.1344 -0.91469,0.112 -1.27497,0.112 0,0 -15.49375,0 -15.49375,0 -0.50775,-0.002 -1.0099,0.0261 -1.49338,-0.1568 -0.62721,-0.23894 -1.84245,-1.20403 -2.42673,-1.64085 0,0 -3.73343,-2.7366 -3.73343,-2.7366 0,0 -6.533511,-4.77506 -6.533511,-4.77506 -0.73549,-0.55255 -2.54061,-1.77712 -3.05955,-2.3502 0,0 -2.3558,-3.83424 -2.3558,-3.83424 0,0 -4.51559,-7.65354 -4.51559,-7.65354 0,0 -9.93093,-16.80045 -9.93093,-16.80045 0,0 -2.98675,-5.04014 -2.98675,-5.04014 -0.33601,-0.55815 -1.29177,-2.05525 -1.39257,-2.6134 -0.13254,-0.72429 0.85869,-2.93635 1.15363,-3.73344 0,0 2.96248,-7.84021 2.96248,-7.84021 0.23147,-0.61042 1.2619,-3.16968 1.2675,-3.62516 0.007,-0.53388 -0.53202,-1.79952 -0.73362,-2.34833 0,0 -1.49337,-4.29345 -1.49337,-4.29345 0,0 -2.75155,-8.02689 -2.75155,-8.02689 0,0 -2.15419,-6.16016 -2.15419,-6.16016 0,0 -1.09203,-6.53351 -1.09203,-6.53351 0,0 -2.01418,-12.69368 -2.01418,-12.69368 0,0 -0.88109,-5.60015 -0.88109,-5.60015 -0.0877,-0.52641 -0.26321,-2.01045 -0.48162,-2.39313 -0.36214,-0.62722 -2.60967,-1.98059 -3.32835,-2.46033 0,0 -7.65354,-5.10174 -7.65354,-5.10174 0,0 -3.54677,-2.39127 -3.54677,-2.39127 -0.54134,-0.38641 -1.86111,-1.3683 -2.42673,-1.54937 -0.53201,-0.16987 -3.19022,-0.11201 -3.9201,-0.10454 0,0 -4.29345,0.34161 -4.29345,0.34161 0,0 -6.16017,0.43681 -6.16017,0.43681 0,0 -7.09353,0.54508 -7.09353,0.54508 0,0 -1.86671,0.16988 -1.86671,0.16988 -0.59549,0.006 -1.70992,0.0467 -2.24006,-0.13067 -0.56749,-0.18854 -1.68938,-0.9987 -2.24006,-1.36271 0,0 -3.73344,-2.42673 -3.73344,-2.42673 -0.61415,-0.40881 -2.66194,-1.69125 -3.02221,-2.15046 -0.34161,-0.43495 -0.65149,-1.74352 -0.81949,-2.32966 0,0 -1.38511,-4.85347 -1.38511,-4.85347 0,0 -2.6918001,-9.333581 -2.6918001,-9.333581 -0.52642,-1.84805 -1.22457,-3.6625 -1.2283,-5.60016 0,0 0,-3.54676 0,-3.54676 0,0 7.8402101,0.88109 7.8402101,0.88109 0,0 16.61378,2.07766 16.61378,2.07766 0,0 11.94699,1.49337 11.94699,1.49337 0,0 6.90686,1.0267 6.90686,1.0267 0,0 11.76031,3.91637 11.76031,3.91637 0,0 16.98713,5.600151 16.98713,5.600151 0,0 12.507,4.12358 12.507,4.12358 2.53314,0.74295 3.20889,1.38324 5.9735,1.41497 0,0 2.426731,0.18667 2.426731,0.18667 0,0 3.36009,0 3.36009,0 0,0 3.17342,0.18667 3.17342,0.18667 0,0 8.5869,0.18667 8.5869,0.18667 0,0 4.10678,0.29121 4.10678,0.29121 0.59175,0.19227 1.3571,0.87363 1.86671,1.2675 0,0 3.73344,2.89715 3.73344,2.89715 0,0 12.69367,9.91787 12.69367,9.91787 0,0 6.45511,-9.14692 6.45511,-9.14692 0,0 12.3446,-17.360471 12.3446,-17.360471 0,0 4.10678,-5.78682 4.10678,-5.78682 0,0 2.48087,-3.54676 2.48087,-3.54676 0.78402,0.84189 2.26619,3.21075 2.98674,4.29345 z M 178.917,222.66928 c 0,0 -3.92011,-3.73531 -3.92011,-3.73531 -0.53948,-0.53948 -1.90405,-1.73978 -2.07579,-2.42673 -0.11947,-0.48348 0.32668,-2.87661 0.42001,-3.54676 0,0 1.25817,-8.5869 1.25817,-8.5869 0,0 0.87922,-6.16016 0.87922,-6.16016 0.10641,-0.72429 0.22214,-2.1934 0.61042,-2.76648 0.49841,-0.73175 3.75023,-2.563 4.69479,-3.13235 0,0 7.65354,-4.62946 7.65354,-4.62946 1.07897,-0.64775 3.05769,-1.96379 4.10678,-2.35207 0,0 -1.17416,4.6668 -1.17416,4.6668 0,0 -1.92086,6.90685 -1.92086,6.90685 0,0 -5.19694,18.85385 -5.19694,18.85385 0,0 -2.535,9.33358 -2.535,9.33358 -1.1219,-0.53015 -1.92272,-1.56804 -2.80007,-2.42486 z"
       clip-path="url(#clipPath6888)" />
  </g>
</svg>
