<svg xmlns="http://www.w3.org/2000/svg" viewBox="0 0 677.94 641.55">
  <defs>
    <style>
      .cls-1 {
        fill: #A855F7;
      }
    </style>
  </defs>
  <g id="Layer_2" data-name="Layer 2">
    <g id="Layer_17" data-name="Layer 17">
      <path class="cls-1" d="M103.72,42.77c1.07,3.21,93,90.89,93,90.89H308.84L390.3,80.2,358.22,42.77,405.27,0l123,66.66-61,100.55,18.21,40.24-34.22,20.31L433.07,160.4l-54.54,12.83,36.36,98.37s-36.36,64.16-39.56,64.16-83.41,16-83.41,16L270,381.07l38.83,44.41L270,466.22l-45.46-40.74v40.74l36.36,49.19-7.29,23.31L200,473.7,201,419.48l-34.22-74.09-8.55-43.85L52.4,269.36,7.49,201,0,155.05l49.19-28.87Z"/>
      <polygon class="cls-1" points="178.57 491.35 184.03 495.78 279.09 573.15 270.01 602.02 178.57 491.35"/>
      <polygon class="cls-1" points="404.15 620.2 279.09 597.74 273.74 608.97 404.15 620.2"/>
      <polygon class="cls-1" points="425.58 627.68 458.73 620.2 442.16 633.03 425.58 627.68"/>
      <path class="cls-1" d="M297.38,530.38c8.44-2.14,73.67-48.12,73.67-48.12v75.92l-18.17,28.87-44-15Z"/>
      <polygon class="cls-1" points="410.61 316.51 395.64 335.76 403.13 353.94 410.61 316.51"/>
      <path class="cls-1" d="M677.94,580.63c-4.28,3.21-56.67,17.11-56.67,17.11L668.32,633l-18.72,8.55-34.75-30.47-27.8,15.5-29.94-6.41-18.18-33.15-28.82-15-13.95-25.4L528.24,555l6.41,17.11,24.6-15,56.67,29.94Z"/>
      <polygon class="cls-1" points="383.88 567.8 395.64 534.65 442.16 534.65 403.13 546.68 410.61 563.52 420.24 587.05 403.13 560.85 395.64 602.02 390.3 577.43 383.88 567.8"/>
      <polygon class="cls-1" points="476.91 568.34 496.16 576.36 476.91 576.36 476.91 568.34"/>
      <polygon class="cls-1" points="458.73 528.24 476.91 538.72 458.73 538.72 458.73 528.24"/>
      <polygon class="cls-1" points="419.17 381.07 413.02 415.57 442.16 434.74 442.16 448.04 417.03 425.48 404.15 425.48 395.64 404.2 403.13 367.84 419.17 381.07"/>
      <polygon class="cls-1" points="418.9 438.79 432 453.39 425.45 458.2 418.9 438.79"/>
      <polygon class="cls-1" points="442.16 458.2 439.78 460.22 418.9 477.98 442.16 486.54 448.04 482.26 442.16 458.2"/>
      <polygon class="cls-1" points="390.3 448.49 381.09 460.94 376.4 467.29 390.3 448.49"/>
      <polygon class="cls-1" points="587.05 99.45 621.27 118.69 604.16 144.36 587.05 130.46 578.15 144.36 569.94 135.8 587.05 121.9 587.05 99.45"/>
      <polygon class="cls-1" points="578.15 152.91 587.05 152.91 578.15 195.68 578.15 212.79 547.49 221.35 528.24 229.9 510.11 217.07 496.16 240.59 496.16 253.43 476.91 249.15 482.26 235.25 496.16 217.07 523.96 203.17 546.42 192.47 569.94 172.16 578.15 152.91"/>
    </g>
  </g>
</svg>