<svg xmlns="http://www.w3.org/2000/svg" viewBox="0 0 528.32 221.6" class="w-full h-full">
  <g>
    <title>Layer 1</title>
    <path 
      d="m160.86408,131.27616c2.16936,1.08504 7.93944,3.97008 17.30952,8.65512l15.7824,-7.63632l59.56704,37.16496l11.20032,-20.36448l70.76736,4.58208l19.3464,-10.18224l-37.99224,-59.4864l11.3904,-14.6088l91.152,150.55919l107.424,-61.0344l-3.2976,-65.4264l-35.7624,15.7752l-50.4792,-45.6336l-37.44,-62.64l-58.572,6.48l-21.1608,49.68l-25.2,-5.6952l-68.4,-17.0928l-21.9672,21.1536l-60.2208,-28.4832l11.3904,-26.0424l-62.64,4.8816l-43.97069,1.5984l-36.6192,35.8416l-11.47075,10.31443l18.07366,8.14586l72.0401,91.89554l21.8916,3.05496l47.85768,-25.45632z" 
      fill="#F59E0B" />
  </g>
</svg>