<?xml version="1.0" encoding="UTF-8"?>
<svg version="1.1" viewBox="0 0 2000 1212" width="500" height="303" xmlns="http://www.w3.org/2000/svg">
<path transform="translate(687)" d="m0 0h6v2l11 3 76 28 56 21-1 5-30 48-12 19-5 7 1 4 16 10 180 108 1-13 17-161 8-75 1-5 3 1 11 16 52 72 30 42 13 18 10 14 14 19 13 19 9 12 13 18 20 28 13 18 10 14 11 15 12 17 26 36 20 28 13 18 20 28 26 36 12 17 14 19 13 19 10 13 13 19 9 12 5 8-14 47-18 61-18 60-26 87-38 128-30 100-4 4-136 10-101 7-16-20-13-17-11-14-14-18-11-14-12-15-20-26-12-15-7-9-10-13-14-18-12-15-12-16-13-16-5-7-10-5-40-14-96-33-28-10h-6l-162 54-43 14-28 9-29 6-282 49h-4l-5-15-16-57-20-71-7-23-9-24-11-27-20-50-19-47-24-60-1-1 1-7 18-40 18-41 18-40 7-16 5-4 126-47 34-13 20-7 16-6 51-19 3-1 2-4 11-14 16-21 10-13 12-15 12-16 28-36 20-26 14-18 15-20 4-4 17 4 43 12 75 21 3-1 6-12 8-13 70-120z" fill="#10BAA5"/>
<path transform="translate(1731,902)" d="m0 0h45l15 1 7 24 9 31 1 7-26 36-10 13-13 18-10 13-13 18-12 16-11 15-42 57-13 18-13 17-13 18-6 8-11-3-54-16-59-17-5-2 2-4 11-10 8-7 10-9 11-9 13-12 8-7 10-9 11-9 14-13 11-9 13-12 8-7 14-12 11-10 8-7 10-9 9-7 8-16 19-41 15-33 8-18z" fill="#10BAA5"/>
<path transform="translate(1792,612)" d="m0 0 3 1 8 11 12 14 8 10 13 16 11 13 8 10 13 16 9 11 13 16 5 5 6 3 31 7 56 13 12 3-6 9-14 20-13 18-12 17-13 18-12 16-9 10-13 12-19 19-8 7-20 20-8 7-4 4h-2v-78l-6-2-50-22 1-4 8-9 8-11 20-26 18-24-1-5-24-64-14-38-9-25-6-15z" fill="#10BAA5"/>
<path transform="translate(1235,1085)" d="m0 0 4 1-7 11-17 29-17 28-15 25-7 11h-3l-8-11-16-21-14-19-12-16-11-15 1-3 67-11z" fill="#10BAA5"/>
</svg>
